<svg width="24" height="24" viewBox="0 0 24 24" fill="none" xmlns="http://www.w3.org/2000/svg">
<path d="M10.8086 17.8586C10.8867 17.9367 11.0133 17.9367 11.0914 17.8586L16.4586 12.4914C16.5367 12.4133 16.5367 12.2867 16.4586 12.2086L15.2914 11.0414C15.2133 10.9633 15.0867 10.9633 15.0086 11.0414L11.0664 14.9836C10.9883 15.0617 10.8617 15.0617 10.7836 14.9836L8.96642 13.1664C8.88832 13.0883 8.76168 13.0883 8.68358 13.1664L7.54142 14.3086C7.46332 14.3867 7.46332 14.5133 7.54142 14.5914L10.8086 17.8586ZM6 22C5.45 22 4.97917 21.8042 4.5875 21.4125C4.19583 21.0208 4 20.55 4 20V4C4 3.45 4.19583 2.97917 4.5875 2.5875C4.97917 2.19583 5.45 2 6 2H13.9172C13.9702 2 14.0211 2.02107 14.0586 2.05858L19.9414 7.94142C19.9789 7.97893 20 8.0298 20 8.08284V20C20 20.55 19.8042 21.0208 19.4125 21.4125C19.0208 21.8042 18.55 22 18 22H6ZM13.2 9C13.0895 9 13 8.91046 13 8.8V4.2C13 4.08954 12.9105 4 12.8 4H6V19.8C6 19.9105 6.08954 20 6.2 20H17.8C17.9105 20 18 19.9105 18 19.8V9.2C18 9.08954 17.9105 9 17.8 9H13.2Z" fill="#FAE2FF"/>
</svg>
